<svg width="24" height="24" viewBox="0 0 24 24" fill="none" xmlns="http://www.w3.org/2000/svg">
<g style="mix-blend-mode:difference">
<path d="M12.9993 20.4999H12.9991C12.8668 20.4999 12.74 20.5524 12.6461 20.6463C12.5523 20.7401 12.4996 20.8673 12.4996 20.9999C12.4996 21.1325 12.5523 21.2597 12.6461 21.3534C12.7398 21.4472 12.8669 21.4998 12.9995 21.4999L12.9993 20.4999ZM12.9993 20.4999C13.1319 20.4998 13.2591 20.5525 13.3528 20.6462M12.9993 20.4999L13.3528 20.6462M9.49925 19.4999H9.49913C9.36679 19.4999 9.24003 19.5524 9.14607 19.6463C9.05231 19.7401 8.99963 19.8673 8.99963 19.9999C8.99963 20.1325 9.05231 20.2597 9.14608 20.3534C9.23981 20.4472 9.36694 20.4998 9.4995 20.4999L9.49925 19.4999ZM9.49925 19.4999C9.63186 19.4998 9.75905 19.5525 9.85285 19.6462M9.49925 19.4999L9.85285 19.6462M16.4993 19.4999H16.4991C16.3668 19.4999 16.24 19.5524 16.1461 19.6463C16.0523 19.7401 15.9996 19.8673 15.9996 19.9999C15.9996 20.1325 16.0523 20.2597 16.1461 20.3534C16.2398 20.4472 16.3669 20.4998 16.4995 20.4999L16.4993 19.4999ZM16.4993 19.4999C16.6319 19.4998 16.7591 19.5525 16.8528 19.6462M16.4993 19.4999L16.8528 19.6462M13.3528 20.6462C13.4466 20.74 13.4993 20.8671 13.4994 20.9998M13.3528 20.6462L13.4994 20.9998M13.4994 20.9998C13.4994 21.1324 13.4468 21.2596 13.353 21.3533M13.4994 20.9998L13.353 21.3533M13.353 21.3533C13.2593 21.4471 13.1322 21.4998 12.9996 21.4999L13.353 21.3533ZM9.85285 19.6462C9.94664 19.74 9.99935 19.8671 9.99938 19.9998M9.85285 19.6462L9.99938 19.9998M9.99938 19.9998C9.99941 20.1324 9.94677 20.2596 9.85302 20.3533M9.99938 19.9998L9.85302 20.3533M9.85302 20.3533C9.75931 20.4471 9.63219 20.4998 9.49963 20.4999L9.85302 20.3533ZM16.8528 19.6462C16.9466 19.74 16.9993 19.8671 16.9994 19.9998M16.8528 19.6462L16.9994 19.9998M16.9994 19.9998C16.9994 20.1324 16.9468 20.2596 16.853 20.3533M16.9994 19.9998L16.853 20.3533M16.853 20.3533C16.7593 20.4471 16.6322 20.4998 16.4996 20.4999L16.853 20.3533ZM9.71688 5.26067C8.16861 6.05452 7.06331 7.42834 6.56341 9.15212L6.56337 9.1521L6.56161 9.15851L6.53061 9.27095C6.09095 9.37253 5.66726 9.53141 5.27025 9.74301C5.04069 9.16809 4.96927 8.53865 5.06842 7.9212C5.19469 7.1348 5.58982 6.41654 6.18644 5.88889C6.78306 5.36123 7.54423 5.05685 8.34017 5.02764C8.81364 5.01026 9.28183 5.0909 9.71688 5.26067ZM12.9177 6.50488H12.9991C14.4669 6.50488 15.5807 6.98762 16.3572 7.73113C17.1382 8.47901 17.609 9.52088 17.7293 10.6862L17.7756 11.1349H18.2266H18.3066C20.0708 11.1349 21.4986 12.5608 21.4986 14.3169C21.4986 16.0735 20.0708 17.4994 18.3061 17.4994H7.69213C5.92803 17.4994 4.50013 16.0735 4.50013 14.3169C4.50013 12.5607 5.92808 11.1344 7.69213 11.1344H7.77213H8.2232L8.26949 10.6857C8.39061 9.51159 8.86161 8.47018 9.64172 7.72483C10.4029 6.99754 11.4893 6.52238 12.9177 6.50488ZM2.56362 11.2319L2.56298 11.2322C2.47955 11.2806 2.38071 11.2949 2.28698 11.2723C2.19325 11.2496 2.11184 11.1918 2.05966 11.1107L1.64219 11.3793L2.05966 11.1107C2.00748 11.0296 1.98854 10.9315 2.00677 10.8369C2.02433 10.7457 2.07508 10.6643 2.149 10.6085L2.1975 10.5778L2.83849 10.208L2.83858 10.2079C2.92469 10.1582 3.027 10.1447 3.12304 10.1705C3.21908 10.1962 3.30097 10.259 3.35072 10.3451C3.39733 10.4258 3.4122 10.521 3.39244 10.6121C3.37343 10.6997 3.32372 10.7774 3.25248 10.8314L3.20418 10.862L2.56362 11.2319ZM2.28939 6.1497L2.28939 6.1497L2.28703 6.14861C2.19877 6.10803 2.12971 6.03478 2.09438 5.94429C2.05905 5.85381 2.06022 5.75314 2.09762 5.66349C2.13503 5.57385 2.20577 5.50221 2.29493 5.46368C2.38158 5.42623 2.47906 5.42288 2.56793 5.45408L2.6143 5.47376L3.28562 5.78671C3.28567 5.78673 3.28573 5.78676 3.28579 5.78679C3.37328 5.8278 3.44157 5.90102 3.4764 5.99116C3.51126 6.08136 3.50992 6.18154 3.47267 6.27078C3.43542 6.36002 3.36514 6.43142 3.2765 6.47007C3.19039 6.50762 3.09342 6.51144 3.00477 6.48098L2.96 6.46233L2.28939 6.1497ZM12.0197 2.51738L12.0201 2.51762C12.0972 2.57159 12.1513 2.65262 12.1715 2.74461L12.6599 2.63753L12.1715 2.74461C12.191 2.83353 12.1774 2.9264 12.1336 3.00593L12.107 3.0468L11.6819 3.65487L11.6807 3.6565C11.6254 3.73629 11.5413 3.79151 11.4461 3.81055C11.3509 3.82959 11.252 3.81096 11.1702 3.75858C11.0885 3.7062 11.0302 3.62415 11.0077 3.52969C10.9859 3.43775 10.9995 3.34104 11.0458 3.25885L11.0732 3.21626L11.4978 2.60954L11.4978 2.60952C11.526 2.56916 11.562 2.53475 11.6035 2.50828C11.6451 2.4818 11.6914 2.46376 11.7399 2.45521C11.7884 2.44665 11.8382 2.44774 11.8863 2.4584C11.9338 2.46894 11.9789 2.48877 12.0197 2.51738ZM6.98026 2.85233L6.98033 2.85251C7.0133 2.94305 7.01017 3.0428 6.97156 3.13109L7.42969 3.3314L6.97156 3.13109C6.93296 3.21938 6.86186 3.28942 6.773 3.32668C6.68414 3.36394 6.58434 3.36557 6.49431 3.33123C6.40738 3.29806 6.33599 3.23381 6.29385 3.15111L6.27158 3.09766L6.019 2.40343L6.01893 2.40325C5.98595 2.31271 5.98909 2.21295 6.02769 2.12467C6.0663 2.03638 6.1374 1.96634 6.22626 1.92908C6.31512 1.89182 6.41491 1.89019 6.50494 1.92453C6.59188 1.9577 6.66327 2.02195 6.70541 2.10465L6.72768 2.15811L6.98026 2.85233Z" stroke="white"/>
</g>
</svg>
