<svg width="184" height="53" viewBox="0 0 184 53" fill="none" xmlns="http://www.w3.org/2000/svg">
<path d="M91.5006 31.5749C91.3673 31.5749 91.2423 31.5542 91.1256 31.5129C91.009 31.4716 90.9006 31.4006 90.8006 31.2999L86.2006 26.6999C86.0173 26.5166 85.9213 26.2872 85.9126 26.0119C85.904 25.7366 86 25.4992 86.2006 25.2999C86.384 25.1166 86.6173 25.0249 86.9006 25.0249C87.184 25.0249 87.4173 25.1166 87.6006 25.2999L91.5006 29.1749L95.4006 25.2999C95.584 25.1166 95.8133 25.0209 96.0886 25.0129C96.364 25.0049 96.6013 25.1006 96.8006 25.2999C96.984 25.4832 97.0756 25.7166 97.0756 25.9999C97.0756 26.2832 96.984 26.5166 96.8006 26.6999L92.2006 31.2999C92.1006 31.3999 91.9923 31.4709 91.8756 31.5129C91.759 31.5549 91.634 31.5756 91.5006 31.5749ZM91.5006 37.5749C91.3673 37.5749 91.2423 37.5542 91.1256 37.5129C91.009 37.4716 90.9006 37.4006 90.8006 37.2999L86.2006 32.6999C86.0173 32.5166 85.9213 32.2876 85.9126 32.0129C85.904 31.7382 86 31.5006 86.2006 31.2999C86.384 31.1166 86.6173 31.0249 86.9006 31.0249C87.184 31.0249 87.4173 31.1166 87.6006 31.2999L91.5006 35.1749L95.4006 31.2999C95.584 31.1166 95.8133 31.0206 96.0886 31.0119C96.364 31.0032 96.6013 31.0992 96.8006 31.2999C96.984 31.4832 97.0756 31.7166 97.0756 31.9999C97.0756 32.2832 96.984 32.5166 96.8006 32.6999L92.2006 37.2999C92.1006 37.3999 91.9923 37.4709 91.8756 37.5129C91.759 37.5549 91.634 37.5756 91.5006 37.5749Z" fill="white"/>
</svg>
